<!-- Generated by IcoMoon.io -->
<svg version="1.1" xmlns="http://www.w3.org/2000/svg" width="38" height="32" viewBox="0 0 38 32">
<title>bell</title>
<path fill="#fff" d="M2.318 11.401c0.302 0.373 0.705 0.581 1.125 0.58 0.216-0.002 0.429-0.060 0.626-0.171s0.376-0.272 0.524-0.473l0.718-0.947c0.268 0.079 0.547 0.068 0.811-0.031s0.503-0.284 0.696-0.536l1.546-2.037 1.085-1.405-0.869-0.052-2.209 2.913c-0.129 0.165-0.292 0.279-0.47 0.329s-0.363 0.034-0.534-0.046c-0.060-0.030-0.126-0.036-0.189-0.019s-0.121 0.057-0.167 0.116l-0.854 1.134c-0.089 0.115-0.194 0.206-0.311 0.269s-0.241 0.094-0.367 0.094c-0.126 0-0.251-0.032-0.367-0.094s-0.222-0.154-0.311-0.269c-0.089-0.106-0.159-0.236-0.206-0.38-0.026-0.077-0.068-0.142-0.123-0.188s-0.118-0.070-0.183-0.070h-0.080c-0.167-0-0.331-0.051-0.479-0.149s-0.277-0.239-0.374-0.412c-0.044-0.071-0.082-0.149-0.11-0.232-0.267-0.073-0.522-0.206-0.753-0.393 0.030 0.522 0.204 1.013 0.49 1.386s0.666 0.604 1.072 0.651c0.075 0.157 0.164 0.302 0.266 0.432z"></path>
<path fill="#fff" d="M12.877 0.012h-0.326c-0.211-0.016-0.422-0.016-0.633 0-1.28 0.135-5.207 0.999-5.373 1.031-0.166 0.071-0.884 0.503-5.594 3.326-0.348 0.225-0.626 0.594-0.79 1.048s-0.205 0.965-0.115 1.451c0.090 0.486 0.305 0.92 0.61 1.23s0.683 0.479 1.073 0.48c0.265 0.001 0.527-0.079 0.763-0.232l4.484-2.862 4.926 0.058 1.898 0.87-3.515 0.645c-0.434 0.074-0.83 0.356-1.109 0.789s-0.419 0.987-0.393 1.548c0.026 0.561 0.217 1.089 0.534 1.477s0.737 0.607 1.174 0.614h0.206l6.437-1.115c0.231-0.033 0.465-0.018 0.693 0.045l2.134 0.599c0.851 0.238 1.729 0.277 2.591 0.116l0.628-0.116v-0.857l-0.728 0.135c-0.773 0.144-1.56 0.111-2.325-0.097l-2.129-0.599c-0.302-0.084-0.612-0.104-0.919-0.058l-6.442 1.121c-0.14 0.019-0.281 0.002-0.415-0.050s-0.26-0.137-0.368-0.25c-0.109-0.114-0.199-0.254-0.265-0.413s-0.108-0.333-0.121-0.512c-0.016-0.177-0.005-0.357 0.034-0.529s0.103-0.332 0.19-0.472c0.087-0.14 0.194-0.256 0.316-0.342s0.256-0.14 0.394-0.159l4.83-0.909c0.073-0.013 0.14-0.056 0.191-0.124s0.083-0.156 0.090-0.25c0.008-0.094-0.009-0.19-0.048-0.27s-0.098-0.142-0.168-0.175l-3.204-1.502c-0.037-0.006-0.074-0.006-0.11 0l-5.061-0.058c-0.052 0.001-0.104 0.016-0.151 0.045l-4.554 2.907c-0.256 0.155-0.549 0.175-0.816 0.054s-0.486-0.372-0.61-0.699c-0.123-0.32-0.143-0.689-0.055-1.028s0.275-0.62 0.522-0.783l5.458-3.261c0.427-0.090 4.087-0.889 5.277-1.012 0.182-0.016 0.365-0.016 0.547 0h0.341c1.18 0.032 5.287 0.251 8.506 1.689h0.055l1.808 0.4v-0.864l-1.677-0.367c-3.213-1.424-7.14-1.676-8.681-1.721l-0.015 0.006z"></path>
<path fill="#fff" d="M37.501 11.749h-9.4v-10.435h9.4v10.435zM37.832 0.463h-10.042c-0.088 0-0.172 0.045-0.234 0.125s-0.097 0.188-0.097 0.301v11.286c0 0.113 0.035 0.221 0.097 0.301s0.146 0.125 0.234 0.125h10.042c0.088-0.002 0.171-0.047 0.233-0.126s0.097-0.187 0.098-0.299v-11.286c-0.001-0.112-0.037-0.22-0.098-0.299s-0.145-0.125-0.233-0.126z"></path>
<path fill="#fff" d="M24.23 1.088c-0.087 0-0.169 0.044-0.231 0.123s-0.095 0.185-0.095 0.296l-0.050 10.035c-0.001 0.055 0.007 0.11 0.023 0.161s0.041 0.097 0.072 0.135c0.030 0.041 0.065 0.073 0.105 0.095s0.083 0.034 0.126 0.034h2.596v-0.851h-2.26l0.045-9.185h2.214v-0.825h-2.541l-0.005-0.019z"></path>
<path fill="#fff" d="M2.313 31.033c0.389-0.641 0.894-1.15 1.471-1.482 0.066-0.038 0.121-0.1 0.16-0.178s0.060-0.168 0.060-0.261v-1.289h14.827v1.289c-0 0.092 0.020 0.182 0.058 0.259s0.093 0.14 0.158 0.179c0.579 0.329 1.084 0.839 1.471 1.482h-18.207zM19.585 28.816v-1.47c-0.001-0.128-0.041-0.25-0.112-0.34s-0.165-0.142-0.265-0.143h-15.566c-0.099 0.002-0.195 0.053-0.265 0.143s-0.11 0.212-0.112 0.34v1.47c-0.537 0.361-1.803 1.36-1.803 2.701 0.001 0.128 0.041 0.25 0.112 0.34s0.165 0.142 0.265 0.143h19.181c0.102-0.005 0.199-0.061 0.269-0.156s0.109-0.222 0.108-0.353c0-1.289-1.26-2.314-1.798-2.675h-0.015z"></path>
<path fill="#fff" d="M11.376 13.798h0.085c0.296 0.002 0.583 0.13 0.816 0.363s0.4 0.559 0.474 0.926h-2.666c0.073-0.368 0.24-0.694 0.474-0.928s0.521-0.36 0.817-0.361zM13.178 16.029c0.102-0.005 0.199-0.061 0.269-0.156s0.109-0.222 0.108-0.353c0-0.353-0.054-0.702-0.159-1.029s-0.259-0.622-0.454-0.872c-0.194-0.25-0.425-0.448-0.679-0.583s-0.526-0.205-0.801-0.205h-0.085c-0.276 0.001-0.55 0.072-0.805 0.209s-0.486 0.337-0.681 0.589c-0.195 0.252-0.348 0.551-0.453 0.88s-0.157 0.681-0.155 1.035c0 0.128 0.040 0.251 0.11 0.342s0.166 0.142 0.266 0.142h3.52z"></path>
<path fill="#fff" d="M11.366 17.524h0.075c3.183 0 6.889 1.992 7.090 7.56h-14.23c0.206-5.524 3.891-7.535 7.065-7.56zM3.558 25.568c-0.001 0.064 0.009 0.127 0.027 0.186s0.046 0.113 0.082 0.158c0.035 0.045 0.077 0.081 0.123 0.105s0.095 0.036 0.145 0.035h14.998c0.1 0 0.196-0.051 0.266-0.141s0.11-0.214 0.11-0.342c0-6.652-4.233-9.023-7.853-9.023h-0.080c-3.891 0.032-7.818 2.836-7.818 9.023z"></path>
<path fill="#fff" d="M5.17 24.627h0.070c0.088 0.001 0.173-0.038 0.241-0.11s0.114-0.172 0.13-0.283c0.17-1 0.525-1.932 1.036-2.717s1.161-1.401 1.897-1.795c0.045-0.026 0.086-0.064 0.12-0.111s0.060-0.102 0.077-0.162c0.017-0.060 0.024-0.124 0.021-0.188s-0.015-0.126-0.037-0.184c-0.043-0.115-0.12-0.204-0.214-0.247s-0.197-0.038-0.288 0.015c-0.846 0.453-1.594 1.164-2.177 2.071s-0.986 1.984-1.172 3.137c-0.010 0.062-0.011 0.126-0.001 0.189s0.029 0.122 0.056 0.175 0.063 0.098 0.105 0.133c0.041 0.035 0.088 0.059 0.137 0.070v0.006z"></path>
<path fill="#fff" d="M18.119 28.681h-13.422c-0.1 0-0.196 0.051-0.266 0.141s-0.11 0.214-0.11 0.342 0.040 0.251 0.11 0.342c0.071 0.091 0.166 0.142 0.266 0.142h13.422c0.1 0 0.195-0.051 0.266-0.142s0.11-0.214 0.11-0.342-0.040-0.251-0.11-0.342c-0.071-0.091-0.166-0.141-0.266-0.141z"></path>
</svg>
