<!-- Generated by IcoMoon.io -->
<svg version="1.1" xmlns="http://www.w3.org/2000/svg" width="38" height="32" viewBox="0 0 38 32">
<title>delivery</title>
<path fill="#fff" d="M32.216 31.337h-26.084v-27.29c0.001-0.892 0.375-1.747 1.039-2.378s1.564-0.986 2.503-0.987h0.076c0.939 0.001 1.839 0.356 2.503 0.987s1.038 1.486 1.039 2.378v2.552h11.772v-2.552c0.001-0.892 0.375-1.747 1.039-2.378s1.564-0.986 2.503-0.987h0.076c0.939 0.001 1.839 0.356 2.503 0.987s1.038 1.486 1.039 2.378v27.284l-0.011 0.005zM28.674 0.005h-0.076c-1.129 0.001-2.211 0.428-3.010 1.185s-1.249 1.785-1.252 2.857v1.869h-10.355v-1.869c0-1.074-0.449-2.103-1.248-2.862s-1.883-1.186-3.014-1.186h-0.076c-1.126 0.007-2.204 0.436-2.998 1.194s-1.241 1.784-1.242 2.853v27.952h27.534v-27.952c0-1.074-0.449-2.103-1.248-2.862s-1.883-1.186-3.014-1.186v0.005z"></path>
<path fill="#fff" d="M7.833 26.824h5.526v2.324h-5.526v-2.324zM7.113 29.831h6.965v-3.696h-6.965v3.696z"></path>
<path fill="#fff" d="M25.055 26.824h5.526v2.324h-5.526v-2.324zM24.336 29.831h6.965v-3.696h-6.965v3.696z"></path>
<path fill="#fff" d="M10.896 6.636h-2.403v-2.811c0.021-0.289 0.156-0.561 0.379-0.759s0.517-0.308 0.823-0.308c0.305 0 0.599 0.11 0.823 0.308s0.359 0.469 0.379 0.759v2.811zM11.615 3.825c-0.061-0.44-0.288-0.843-0.639-1.136s-0.802-0.454-1.269-0.454c-0.467 0-0.918 0.161-1.269 0.454s-0.578 0.696-0.639 1.136v3.494h3.815v-3.494z"></path>
<path fill="#fff" d="M29.824 6.636h-2.404v-2.811c0.021-0.289 0.156-0.561 0.379-0.759s0.517-0.308 0.823-0.308c0.305 0 0.599 0.11 0.823 0.308s0.359 0.469 0.379 0.759v2.811zM30.543 3.825c-0.061-0.44-0.288-0.843-0.639-1.136s-0.802-0.454-1.269-0.454c-0.467 0-0.918 0.161-1.269 0.454s-0.578 0.696-0.639 1.136v3.494h3.815v-3.494z"></path>
<path fill="#fff" d="M10.896 14.841h-2.403v-2.811c0.021-0.289 0.156-0.561 0.379-0.759s0.517-0.308 0.823-0.308c0.305 0 0.599 0.11 0.823 0.308s0.359 0.469 0.379 0.759v2.811zM11.615 12.030c-0.061-0.44-0.288-0.843-0.639-1.136s-0.802-0.454-1.269-0.454c-0.467 0-0.918 0.161-1.269 0.454s-0.578 0.696-0.639 1.136v3.494h3.815v-3.494z"></path>
<path fill="#fff" d="M17.207 14.84h-2.409v-2.811c0-0.303 0.127-0.594 0.353-0.809s0.532-0.335 0.852-0.335c0.319 0 0.626 0.121 0.852 0.335s0.353 0.505 0.353 0.809v2.811zM17.926 12.030c0-0.485-0.203-0.949-0.564-1.292s-0.85-0.535-1.36-0.535-1 0.193-1.36 0.535c-0.361 0.343-0.563 0.807-0.563 1.292v3.494h3.848v-3.494z"></path>
<path fill="#fff" d="M23.518 14.84h-2.409v-2.811c0-0.303 0.127-0.594 0.353-0.809s0.532-0.335 0.852-0.335c0.319 0 0.626 0.121 0.852 0.335s0.353 0.505 0.353 0.809v2.811zM24.237 12.030c0-0.485-0.203-0.949-0.564-1.292s-0.85-0.535-1.36-0.535c-0.51 0-1 0.193-1.36 0.535s-0.563 0.807-0.563 1.292v3.494h3.848v-3.494z"></path>
<path fill="#fff" d="M29.824 14.841h-2.404v-2.811c0.021-0.289 0.156-0.561 0.379-0.759s0.517-0.308 0.823-0.308c0.305 0 0.599 0.11 0.823 0.308s0.359 0.469 0.379 0.759v2.811zM30.543 12.030c-0.061-0.44-0.288-0.843-0.639-1.136s-0.802-0.454-1.269-0.454c-0.467 0-0.918 0.161-1.269 0.454s-0.578 0.696-0.639 1.136v3.494h3.815v-3.494z"></path>
<path fill="#fff" d="M8.492 19.059c0.021-0.289 0.156-0.561 0.379-0.759s0.517-0.308 0.823-0.308c0.305 0 0.599 0.11 0.823 0.308s0.359 0.469 0.379 0.759v2.805h-2.403v-2.805zM7.767 22.538h3.815v-3.478c-0.061-0.44-0.288-0.843-0.639-1.136s-0.802-0.454-1.269-0.454-0.918 0.161-1.269 0.454c-0.351 0.293-0.578 0.696-0.639 1.136v3.478z"></path>
<path fill="#fff" d="M14.798 19.059c0-0.303 0.127-0.594 0.353-0.809s0.532-0.335 0.852-0.335c0.319 0 0.626 0.12 0.852 0.335s0.353 0.506 0.353 0.809v2.805h-2.409v-2.805zM14.079 22.548h3.848v-3.489c0-0.485-0.203-0.949-0.564-1.292s-0.85-0.535-1.36-0.535-1 0.192-1.36 0.535c-0.361 0.343-0.563 0.808-0.563 1.292v3.489z"></path>
<path fill="#fff" d="M21.109 19.059c0-0.303 0.127-0.594 0.353-0.809s0.532-0.335 0.852-0.335c0.319 0 0.626 0.12 0.852 0.335s0.353 0.506 0.353 0.809v2.805h-2.409v-2.805zM20.39 22.548h3.848v-3.489c0-0.485-0.203-0.949-0.564-1.292s-0.85-0.535-1.36-0.535c-0.51 0-1 0.192-1.36 0.535s-0.563 0.808-0.563 1.292v3.489z"></path>
<path fill="#fff" d="M27.42 19.059c0.021-0.289 0.156-0.561 0.379-0.759s0.517-0.308 0.823-0.308c0.305 0 0.599 0.11 0.823 0.308s0.359 0.469 0.379 0.759v2.805h-2.404v-2.805zM26.701 22.548h3.815v-3.489c-0.061-0.44-0.288-0.843-0.639-1.136s-0.802-0.454-1.269-0.454-0.918 0.161-1.269 0.454c-0.351 0.293-0.578 0.696-0.639 1.136v3.489z"></path>
<path fill="#fff" d="M15.795 30.654h0.719v-4.074h2.42v4.074h0.719v-4.074h2.42v4.074h0.719v-4.757h-6.998v4.757z"></path>
<path fill="#fff" d="M6.841 9.1h24.656v-0.683h-24.656v0.683z"></path>
<path fill="#fff" d="M23.622 3.929c0.007-0.229 0.031-0.457 0.071-0.683h-9.047c0.040 0.226 0.064 0.454 0.071 0.683h8.905z"></path>
<path fill="#fff" d="M6.841 25.043h24.656v-0.683h-24.656v0.683z"></path>
</svg>
