<!-- Generated by IcoMoon.io -->
<svg version="1.1" xmlns="http://www.w3.org/2000/svg" width="42" height="32" viewBox="0 0 42 32">
<title>food</title>
<path fill="#fff" d="M7.689 1.451c0.457-0.254 0.961-0.401 1.477-0.431 0.139-0.016 0.279 0.014 0.4 0.086 0.038 0.139-0.319 0.816-1.395 1.38-0.455 0.253-0.957 0.398-1.47 0.425-0.139 0.016-0.279-0.014-0.4-0.086-0.038-0.139 0.313-0.809 1.389-1.373zM6.7 3.912c0.655-0.027 1.296-0.208 1.877-0.531 0.56-0.28 1.060-0.677 1.47-1.168 0.582-0.736 0.469-1.28 0.344-1.539-0.123-0.23-0.307-0.416-0.53-0.534s-0.474-0.163-0.721-0.129c-0.655 0.030-1.295 0.211-1.877 0.531-0.562 0.282-1.064 0.681-1.477 1.174-0.197 0.189-0.334 0.437-0.393 0.711s-0.038 0.561 0.061 0.821c0.123 0.23 0.307 0.416 0.53 0.534s0.474 0.163 0.721 0.129h-0.006z"></path>
<path fill="#fff" d="M9.091 4.416c2.036-1.078 4.282-1.637 6.557-1.632 2.672-0.009 5.297 0.75 7.595 2.198s4.181 3.529 5.452 6.022l-26.568 13.931c-1.557-3.712-1.702-7.917-0.404-11.739s3.937-6.965 7.368-8.773v-0.007zM1.688 26.262l28.276-14.814-0.213-0.444c-1.905-3.876-5.166-6.808-9.085-8.166s-8.183-1.035-11.88 0.901-6.531 5.329-7.897 9.453c-1.365 4.124-1.153 8.652 0.592 12.612l0.206 0.445v0.013z"></path>
<path fill="#fff" d="M3.096 23.847c0.056 0.002 0.112-0.009 0.163-0.033 0.061-0.022 0.117-0.057 0.164-0.103s0.085-0.102 0.111-0.164c0.026-0.062 0.039-0.13 0.039-0.198s-0.014-0.136-0.039-0.198c-0.835-2.529-0.98-5.257-0.418-7.869s1.809-5.003 3.596-6.898c0.056-0.043 0.102-0.099 0.135-0.164s0.053-0.136 0.057-0.209c0.004-0.073-0.007-0.147-0.033-0.215s-0.066-0.129-0.117-0.179c-0.051-0.050-0.112-0.087-0.178-0.109s-0.136-0.028-0.205-0.019c-0.069 0.010-0.134 0.036-0.192 0.076s-0.107 0.093-0.144 0.156c-1.911 2.028-3.242 4.588-3.84 7.384s-0.438 5.714 0.461 8.418c0.033 0.095 0.093 0.177 0.171 0.235s0.171 0.089 0.267 0.090z"></path>
<path fill="#fff" d="M34.957 31.27h-33.575c-0.106-0.014-0.204-0.068-0.275-0.153s-0.11-0.195-0.11-0.308c0-0.114 0.039-0.223 0.11-0.308s0.169-0.139 0.275-0.153h33.575c0.106 0.014 0.204 0.068 0.275 0.153s0.11 0.194 0.11 0.308c0 0.113-0.039 0.223-0.11 0.308s-0.169 0.139-0.275 0.153zM34.957 29.618h-33.575c-0.283 0.022-0.548 0.158-0.742 0.378s-0.301 0.511-0.301 0.812c0 0.301 0.107 0.591 0.301 0.812s0.458 0.356 0.742 0.379h33.575c0.283-0.022 0.548-0.158 0.742-0.379s0.301-0.511 0.301-0.812-0.107-0.591-0.301-0.812c-0.193-0.221-0.458-0.356-0.742-0.378z"></path>
<path fill="#fff" d="M31.935 21.823l-0.626 5.267c-0.038 0.287-0.172 0.549-0.378 0.739s-0.469 0.295-0.742 0.295h-3.041c-0.273-0-0.537-0.105-0.742-0.295s-0.34-0.453-0.378-0.739l-0.626-5.267h6.532zM25.315 27.184c0.059 0.463 0.274 0.888 0.605 1.197s0.756 0.48 1.197 0.482h3.041c0.441-0.001 0.867-0.171 1.198-0.48s0.546-0.735 0.604-1.198l0.757-6.090h-8.134l0.757 6.090h-0.025z"></path>
<path fill="#fff" d="M32.842 26.912c-0.050-0.009-0.098-0.025-0.144-0.046l-0.050 0.438c0 0.106-0.044 0.199-0.063 0.299l0.138 0.033c0.079 0.007 0.158 0.007 0.238 0 0.97 0 1.877-1.081 2.096-2.461 0.147-0.842-0.019-1.712-0.463-2.428-0.117-0.175-0.266-0.324-0.438-0.438s-0.364-0.19-0.563-0.225c-0.098-0.010-0.196-0.010-0.294 0l-0.094 0.75c0.054-0.006 0.109-0.006 0.163 0h0.125c0.222 0.051 0.417 0.191 0.544 0.391 0.334 0.56 0.455 1.233 0.338 1.884-0.156 1.061-0.888 1.944-1.533 1.831v-0.027z"></path>
<path fill="#fff" d="M28.725 14.248c-0.057-0.028-0.118-0.043-0.18-0.045s-0.124 0.009-0.183 0.032c-0.058 0.023-0.111 0.059-0.157 0.104s-0.081 0.1-0.106 0.161c-0.745 1.785-0.363 2.607 0 3.317 0.196 0.346 0.299 0.741 0.299 1.144s-0.103 0.799-0.299 1.144c-0.026 0.061-0.040 0.127-0.041 0.193s0.010 0.133 0.034 0.195c0.023 0.062 0.058 0.118 0.102 0.165s0.097 0.085 0.155 0.11c0.058 0.025 0.119 0.039 0.181 0.040 0.093 0.001 0.185-0.027 0.263-0.082s0.139-0.132 0.175-0.223c0.245-0.479 0.369-1.017 0.362-1.562s-0.147-1.079-0.406-1.55c-0.294-0.63-0.526-1.134 0.038-2.488 0.026-0.060 0.040-0.125 0.043-0.191s-0.008-0.132-0.030-0.194c-0.022-0.062-0.056-0.118-0.098-0.166s-0.095-0.086-0.152-0.113v0.007z"></path>
<path fill="#fff" d="M26.729 14.248c-0.057-0.028-0.118-0.043-0.18-0.045s-0.124 0.009-0.183 0.032-0.111 0.059-0.157 0.104c-0.045 0.046-0.081 0.1-0.106 0.161-0.745 1.785-0.363 2.607 0 3.317 0.196 0.346 0.299 0.741 0.299 1.144s-0.103 0.799-0.299 1.144c-0.026 0.061-0.039 0.127-0.041 0.193s0.010 0.133 0.034 0.195c0.023 0.062 0.058 0.118 0.102 0.165s0.097 0.085 0.155 0.11c0.058 0.025 0.119 0.039 0.181 0.040 0.095 0.003 0.189-0.026 0.269-0.081s0.141-0.136 0.176-0.23c0.247-0.478 0.373-1.016 0.367-1.561s-0.146-1.079-0.404-1.55c-0.294-0.63-0.526-1.134 0.038-2.488 0.026-0.060 0.040-0.125 0.043-0.191s-0.008-0.132-0.030-0.194c-0.022-0.062-0.056-0.118-0.098-0.166s-0.095-0.086-0.152-0.113l-0.012 0.013z"></path>
<path fill="#fff" d="M30.108 17.843c0.194 0.346 0.296 0.742 0.296 1.144s-0.102 0.798-0.296 1.144c-0.029 0.061-0.045 0.127-0.049 0.195s0.006 0.136 0.029 0.2c0.022 0.064 0.057 0.122 0.101 0.171s0.098 0.088 0.157 0.114c0.059 0.026 0.123 0.040 0.187 0.039s0.128-0.015 0.186-0.043 0.111-0.068 0.155-0.118c0.043-0.050 0.077-0.109 0.098-0.173 0.247-0.479 0.372-1.017 0.365-1.562s-0.148-1.079-0.408-1.55c-0.294-0.63-0.526-1.134 0.044-2.488 0.050-0.122 0.053-0.261 0.007-0.385s-0.136-0.224-0.251-0.278c-0.057-0.028-0.118-0.043-0.18-0.045s-0.124 0.009-0.183 0.032c-0.058 0.023-0.111 0.059-0.157 0.104s-0.081 0.1-0.106 0.161c-0.738 1.785-0.357 2.607 0 3.317l0.006 0.020z"></path>
<path fill="#fff" d="M17.8 28.278v0.61h0.695v-0.544l5.006-1.373c0.114-0.034 0.213-0.111 0.278-0.216s0.093-0.231 0.078-0.356c-0.015-0.125-0.072-0.239-0.16-0.323s-0.202-0.131-0.32-0.134h-19.397c-0.118 0.004-0.231 0.052-0.318 0.137s-0.143 0.199-0.157 0.323 0.014 0.25 0.079 0.354c0.065 0.104 0.164 0.18 0.277 0.214l4.956 1.36v0.557h0.695v-0.663c-0.001-0.13-0.042-0.256-0.116-0.359s-0.179-0.177-0.297-0.212l-3.56-0.995h16.268l-3.573 0.975c-0.137 0.039-0.257 0.126-0.341 0.246s-0.127 0.268-0.122 0.417l0.031-0.020z"></path>
<path fill="#fff" d="M16.881 24.696l1.183 0.517h1.808l-2.728-1.194c-2.233-0.959-4.731-0.959-6.964 0l-2.847 1.221h1.84l1.251-0.544c2.067-0.885 4.378-0.885 6.445 0h0.013z"></path>
</svg>
