<!-- Generated by IcoMoon.io -->
<svg version="1.1" xmlns="http://www.w3.org/2000/svg" width="32" height="32" viewBox="0 0 32 32">
<title>info</title>
<path fill="#fff" d="M18.292 8.854l-0.364 11.233h-3.249l-0.364-11.233h3.976zM16.3 25.273c-0.564 0-1.049-0.2-1.454-0.601-0.401-0.401-0.601-0.885-0.601-1.455 0-0.559 0.2-1.036 0.601-1.431 0.406-0.401 0.891-0.601 1.454-0.601 0.543 0 1.020 0.2 1.431 0.601 0.416 0.395 0.625 0.872 0.625 1.431 0 0.379-0.098 0.725-0.292 1.036-0.19 0.311-0.44 0.559-0.751 0.743-0.306 0.184-0.643 0.277-1.012 0.277z"></path>
<path fill="none" stroke="#fff" stroke-linejoin="miter" stroke-linecap="butt" stroke-miterlimit="4" stroke-width="1.3913" d="M31.304 16c0 8.452-6.852 15.304-15.304 15.304s-15.304-6.852-15.304-15.304c0-8.452 6.852-15.304 15.304-15.304s15.304 6.852 15.304 15.304z"></path>
</svg>
